<svg width="33" height="33" viewBox="0 0 33 33" fill="none" xmlns="http://www.w3.org/2000/svg">
<path d="M16.0597 0.391152C16.1216 -0.130384 16.8784 -0.130384 16.9403 0.391152L17.4595 4.76636C18.1298 10.4159 22.5841 14.8702 28.2336 15.5405L32.6088 16.0597C33.1304 16.1216 33.1304 16.8784 32.6088 16.9403L28.2336 17.4595C22.5841 18.1298 18.1298 22.5841 17.4595 28.2336L16.9403 32.6088C16.8784 33.1304 16.1216 33.1304 16.0597 32.6088L15.5405 28.2336C14.8702 22.5841 10.4159 18.1298 4.76636 17.4595L0.391152 16.9403C-0.130384 16.8784 -0.130384 16.1216 0.391152 16.0597L4.76636 15.5405C10.4159 14.8702 14.8702 10.4159 15.5405 4.76636L16.0597 0.391152Z" fill="#4285F4"/>
</svg>
