<svg width="21" height="21" viewBox="0 0 21 21" fill="none" xmlns="http://www.w3.org/2000/svg">
<path d="M10.2198 0.248915C10.2592 -0.0829716 10.7408 -0.0829716 10.7802 0.248915L11.1106 3.03314C11.5372 6.62832 14.3717 9.46285 17.9668 9.88943L20.7511 10.2198C21.083 10.2592 21.083 10.7408 20.7511 10.7802L17.9668 11.1106C14.3717 11.5372 11.5372 14.3717 11.1106 17.9668L10.7802 20.7511C10.7408 21.083 10.2592 21.083 10.2198 20.7511L9.88943 17.9668C9.46285 14.3717 6.62832 11.5372 3.03314 11.1106L0.248915 10.7802C-0.0829716 10.7408 -0.0829716 10.2592 0.248915 10.2198L3.03314 9.88943C6.62832 9.46285 9.46285 6.62832 9.88943 3.03314L10.2198 0.248915Z" fill="#F9AB00"/>
</svg>
